<svg xmlns="http://www.w3.org/2000/svg" xmlns:xlink="http://www.w3.org/1999/xlink" width="215" height="204.695" viewBox="0 0 215 204.695">
  <defs>
    <radialGradient id="radial-gradient" cx="0.5" cy="0.5" r="2.854" gradientUnits="objectBoundingBox">
      <stop offset="0" stop-color="#4d4d4d"/>
      <stop offset="0.087" stop-color="#696969"/>
      <stop offset="0.242" stop-color="#979797"/>
      <stop offset="0.398" stop-color="#bcbcbc"/>
      <stop offset="0.552" stop-color="#d9d9d9"/>
      <stop offset="0.705" stop-color="#eee"/>
      <stop offset="0.855" stop-color="#fafafa"/>
      <stop offset="1" stop-color="#fff"/>
    </radialGradient>
  </defs>
  <g id="Group_11" data-name="Group 11" transform="translate(-40.746 -47.234)">
    <path id="Path_26" data-name="Path 26" d="M255.746,144.016c0,10.405-48.129,18.839-107.5,18.839s-107.5-8.434-107.5-18.839,48.127-18.837,107.5-18.837S255.746,133.611,255.746,144.016Z" transform="translate(0 89.074)" fill="url(#radial-gradient)" style="mix-blend-mode: multiply;isolation: isolate"/>
    <g id="Group_10" data-name="Group 10" transform="translate(55.565 47.234)">
      <g id="Group_7" data-name="Group 7">
        <path id="Path_27" data-name="Path 27" d="M230.87,140.64l-2.068-.214c0-.225.017-.439.017-.664s-.017-.437-.017-.66l2.068-.214a2.407,2.407,0,0,0,2.138-2.642l-1.294-12.308a2.411,2.411,0,0,0-2.64-2.143l-2.046.221c-.088-.433-.2-.859-.294-1.288l1.971-.645a2.4,2.4,0,0,0,1.545-3.03l-3.823-11.766a2.4,2.4,0,0,0-3.03-1.543l-1.984.643c-.176-.4-.36-.8-.542-1.2l1.815-1.05a2.4,2.4,0,0,0,.879-3.281L217.381,88.14a2.41,2.41,0,0,0-3.287-.879l-1.836,1.059c-.255-.351-.5-.714-.756-1.069l1.564-1.408a2.4,2.4,0,0,0,.18-3.392l-8.282-9.2a2.407,2.407,0,0,0-3.394-.178L200,74.488c-.321-.3-.651-.576-.979-.868l1.247-1.719a2.407,2.407,0,0,0-.531-3.358l-10.011-7.275a2.409,2.409,0,0,0-3.36.529L185.13,63.5c-.377-.221-.758-.435-1.138-.656l.857-1.924a2.4,2.4,0,0,0-1.221-3.171l-11.305-5.036a2.4,2.4,0,0,0-3.171,1.217l-.851,1.9c-.414-.139-.827-.289-1.247-.42l.431-2.027a2.4,2.4,0,0,0-1.849-2.85l-12.107-2.573a2.4,2.4,0,0,0-2.85,1.849l-.431,2.038q-.662-.077-1.32-.148v-2.07a2.4,2.4,0,0,0-2.4-2.4H134.151a2.4,2.4,0,0,0-2.4,2.4v2.074c-.439.043-.874.092-1.314.144L130,49.822a2.4,2.4,0,0,0-2.85-1.851l-12.107,2.573a2.4,2.4,0,0,0-1.847,2.85l.429,2.025c-.422.131-.831.281-1.249.42l-.849-1.9a2.4,2.4,0,0,0-3.173-1.219L97.053,57.753a2.4,2.4,0,0,0-1.217,3.171l.855,1.924q-.569.325-1.136.656l-1.236-1.7a2.4,2.4,0,0,0-3.358-.534L80.95,68.544a2.4,2.4,0,0,0-.531,3.358l1.247,1.719c-.326.291-.66.572-.979.868l-1.573-1.414a2.4,2.4,0,0,0-3.394.178l-8.28,9.2a2.4,2.4,0,0,0,.18,3.392l1.564,1.408c-.259.356-.5.718-.759,1.069l-1.836-1.059a2.408,2.408,0,0,0-3.285.879L57.118,98.858A2.4,2.4,0,0,0,58,102.138l1.815,1.05c-.182.4-.369.8-.542,1.2l-1.984-.643a2.4,2.4,0,0,0-3.028,1.543l-3.825,11.766a2.4,2.4,0,0,0,1.543,3.028l1.978.643c-.1.433-.208.857-.3,1.292l-2.042-.221a2.414,2.414,0,0,0-2.644,2.143l-1.294,12.306a2.4,2.4,0,0,0,2.141,2.642l2.068.216c0,.221-.017.441-.017.66s.015.439.017.664l-2.068.214a2.4,2.4,0,0,0-2.139,2.642l1.292,12.306a2.4,2.4,0,0,0,2.644,2.134l2.042-.212c.09.431.2.859.3,1.29l-1.976.641a2.4,2.4,0,0,0-1.543,3.028l3.823,11.768a2.4,2.4,0,0,0,3.028,1.543l1.984-.641c.176.4.36.8.542,1.194L58,177.382a2.4,2.4,0,0,0-.879,3.285l6.186,10.714a2.4,2.4,0,0,0,3.283.879l1.836-1.061c.255.356.5.722.761,1.071l-1.564,1.41a2.4,2.4,0,0,0-.178,3.394l8.28,9.195a2.4,2.4,0,0,0,3.394.178l1.569-1.412c.321.3.656.581.984.868l-1.249,1.719a2.4,2.4,0,0,0,.531,3.356l10.013,7.273a2.4,2.4,0,0,0,3.356-.529l1.236-1.7c.375.223.756.439,1.138.658L95.84,218.6a2.4,2.4,0,0,0,1.217,3.169l11.305,5.036a2.4,2.4,0,0,0,3.173-1.217l.846-1.9c.418.141.829.291,1.249.422l-.429,2.021a2.4,2.4,0,0,0,1.849,2.85l12.107,2.573a2.4,2.4,0,0,0,2.85-1.849l.433-2.031c.435.047.868.1,1.307.146v2.072a2.406,2.406,0,0,0,2.4,2.4h12.375a2.406,2.406,0,0,0,2.4-2.4v-2.072c.439-.045.876-.1,1.311-.146l.435,2.031a2.4,2.4,0,0,0,2.85,1.851l12.1-2.573a2.4,2.4,0,0,0,1.856-2.848l-.433-2.025c.42-.131.834-.281,1.247-.422l.851,1.9a2.4,2.4,0,0,0,3.171,1.217l11.305-5.031a2.4,2.4,0,0,0,1.217-3.173l-.853-1.924c.379-.219.761-.435,1.138-.658l1.234,1.7a2.407,2.407,0,0,0,3.36.531l10.007-7.273a2.394,2.394,0,0,0,.531-3.353l-1.247-1.718c.332-.291.662-.576.984-.872l1.571,1.414a2.4,2.4,0,0,0,3.394-.178l8.282-9.2a2.4,2.4,0,0,0-.18-3.394l-1.564-1.406c.259-.354.506-.718.756-1.071l1.836,1.059a2.4,2.4,0,0,0,3.287-.881l6.188-10.714a2.4,2.4,0,0,0-.883-3.283l-1.811-1.048c.182-.4.366-.8.542-1.2l1.984.641a2.4,2.4,0,0,0,3.026-1.543l3.827-11.768a2.4,2.4,0,0,0-1.545-3.028l-1.971-.641c.092-.431.206-.855.294-1.288l2.042.214a2.407,2.407,0,0,0,2.644-2.138l1.294-12.306A2.4,2.4,0,0,0,230.87,140.64Zm-90.535,63.593A64.467,64.467,0,1,1,204.8,139.768,64.53,64.53,0,0,1,140.335,204.233Z" transform="translate(-47.662 -47.234)" fill="#575757"/>
        <path id="Path_28" data-name="Path 28" d="M126.34,63.7A62.141,62.141,0,1,1,64.2,125.841,62.213,62.213,0,0,1,126.34,63.7Zm0-4.286a66.426,66.426,0,1,0,66.426,66.426A66.427,66.427,0,0,0,126.34,59.415Z" transform="translate(-33.66 -33.314)" fill="#6d7080"/>
        <path id="Path_29" data-name="Path 29" d="M213.061,193.68l-1.564-1.406c.259-.354.506-.718.756-1.071l1.836,1.059a2.4,2.4,0,0,0,3.287-.881l6.188-10.714a2.4,2.4,0,0,0-.883-3.283l-1.811-1.048c.182-.4.366-.8.542-1.2l1.984.641a2.4,2.4,0,0,0,3.026-1.543l3.827-11.768a2.4,2.4,0,0,0-1.545-3.028l-1.971-.641c.092-.431.206-.855.294-1.288l2.042.214a2.407,2.407,0,0,0,2.644-2.138l1.294-12.306a2.4,2.4,0,0,0-2.138-2.642l-2.068-.214c0-.225.017-.439.017-.664s-.017-.437-.017-.66l2.068-.214a2.407,2.407,0,0,0,2.138-2.642l-1.294-12.308a2.411,2.411,0,0,0-2.64-2.143l-2.046.221c-.088-.433-.2-.859-.294-1.288l1.971-.645a2.4,2.4,0,0,0,1.545-3.03l-3.823-11.766a2.4,2.4,0,0,0-3.03-1.543l-1.984.643c-.176-.4-.36-.8-.542-1.2l1.815-1.05a2.4,2.4,0,0,0,.879-3.281L217.381,88.14a2.41,2.41,0,0,0-3.287-.879l-1.836,1.059c-.255-.351-.5-.714-.756-1.069l1.564-1.408a2.4,2.4,0,0,0,.18-3.392l-8.282-9.2a2.407,2.407,0,0,0-3.394-.178L200,74.488c-.321-.3-.651-.576-.979-.868l1.247-1.719a2.407,2.407,0,0,0-.531-3.358l-10.011-7.275a2.409,2.409,0,0,0-3.36.529L185.13,63.5c-.377-.221-.758-.435-1.138-.656l.857-1.924a2.4,2.4,0,0,0-1.221-3.171l-11.305-5.036a2.4,2.4,0,0,0-3.171,1.217l-.851,1.9c-.414-.139-.827-.289-1.247-.42l.431-2.027a2.4,2.4,0,0,0-1.849-2.85l-12.107-2.573a2.4,2.4,0,0,0-2.85,1.849l-.431,2.038q-.662-.077-1.32-.148v-2.07a2.4,2.4,0,0,0-2.4-2.4H134.151a2.4,2.4,0,0,0-2.4,2.4v2.074c-.439.043-.874.092-1.314.144L130,49.822a2.4,2.4,0,0,0-2.85-1.851l-12.107,2.573a2.4,2.4,0,0,0-1.847,2.85l.429,2.025c-.422.131-.831.281-1.249.42l-.849-1.9a2.4,2.4,0,0,0-3.173-1.219L97.053,57.753a2.4,2.4,0,0,0-1.217,3.171l.855,1.924q-.569.325-1.136.656l-1.236-1.7a2.4,2.4,0,0,0-3.358-.534L80.95,68.544a2.4,2.4,0,0,0-.531,3.358l1.247,1.719c-.326.291-.66.572-.979.868l-1.573-1.414a2.4,2.4,0,0,0-3.394.178l-8.28,9.2a2.4,2.4,0,0,0,.18,3.392l1.564,1.408c-.259.356-.5.718-.759,1.069l-1.836-1.059a2.408,2.408,0,0,0-3.285.879L57.118,98.858A2.4,2.4,0,0,0,58,102.138l1.815,1.05c-.182.4-.369.8-.542,1.2l-1.984-.643a2.4,2.4,0,0,0-3.028,1.543l-3.825,11.766a2.4,2.4,0,0,0,1.543,3.028l1.978.643c-.1.433-.208.857-.3,1.292l-2.042-.221a2.414,2.414,0,0,0-2.644,2.143l-1.294,12.306a2.4,2.4,0,0,0,2.141,2.642l2.068.216c0,.221-.017.441-.017.66s.015.439.017.664l-2.068.214a2.4,2.4,0,0,0-2.139,2.642l1.292,12.306a2.4,2.4,0,0,0,2.644,2.134l2.042-.212c.09.431.2.859.3,1.29l-1.976.641a2.4,2.4,0,0,0-1.543,3.028l3.823,11.768a2.4,2.4,0,0,0,3.028,1.543l1.984-.641c.176.4.36.8.542,1.194L58,177.382a2.4,2.4,0,0,0-.879,3.285l6.186,10.714a2.4,2.4,0,0,0,3.283.879l1.836-1.061c.255.356.5.722.761,1.071l-1.564,1.41a2.4,2.4,0,0,0-.178,3.394l8.28,9.195a2.4,2.4,0,0,0,3.394.178l1.569-1.412c.321.3.656.581.984.868l-1.249,1.719a2.4,2.4,0,0,0,.531,3.356l10.013,7.273a2.4,2.4,0,0,0,3.356-.529l1.236-1.7c.375.223.756.439,1.138.658L95.84,218.6a2.4,2.4,0,0,0,1.217,3.169l11.305,5.036a2.4,2.4,0,0,0,3.173-1.217l.846-1.9c.418.141.829.291,1.249.422l-.429,2.021a2.4,2.4,0,0,0,1.849,2.85l12.107,2.573a2.4,2.4,0,0,0,2.85-1.849l.433-2.031c.435.047.868.1,1.307.146v2.072a2.406,2.406,0,0,0,2.4,2.4h12.375a2.406,2.406,0,0,0,2.4-2.4v-2.072c.439-.045.876-.1,1.311-.146l.435,2.031a2.4,2.4,0,0,0,2.85,1.851l12.1-2.573a2.4,2.4,0,0,0,1.856-2.848l-.433-2.025c.42-.131.834-.281,1.247-.422l.851,1.9a2.4,2.4,0,0,0,3.171,1.217l11.305-5.031a2.4,2.4,0,0,0,1.217-3.173l-.853-1.924c.379-.219.761-.435,1.138-.658l1.234,1.7a2.407,2.407,0,0,0,3.36.531l10.007-7.273a2.394,2.394,0,0,0,.531-3.353l-1.247-1.718c.332-.291.662-.576.984-.872l1.571,1.414a2.4,2.4,0,0,0,3.394-.178l8.282-9.2A2.4,2.4,0,0,0,213.061,193.68ZM140.342,227.6a87.841,87.841,0,1,1,87.839-87.841A87.938,87.938,0,0,1,140.342,227.6Z" transform="translate(-47.662 -47.234)" fill="#6d7080"/>
        <path id="Path_30" data-name="Path 30" d="M137.761,49.421A87.841,87.841,0,1,0,225.6,137.262,87.94,87.94,0,0,0,137.761,49.421Zm-.006,152.313a64.467,64.467,0,1,1,64.466-64.466A64.53,64.53,0,0,1,137.755,201.734Z" transform="translate(-45.081 -44.735)" fill="#2b2c33"/>
      </g>
      <g id="Group_9" data-name="Group 9" transform="translate(30.179 29.883)">
        <path id="Path_31" data-name="Path 31" d="M124.244,61.18a62.5,62.5,0,1,0,62.5,62.5A62.5,62.5,0,0,0,124.244,61.18Zm8.723,13.907a3.051,3.051,0,0,1,3.735-2.773,53.348,53.348,0,0,1,32.512,23.646,3.016,3.016,0,0,1,.343,2.522,3.094,3.094,0,0,1-1.808,1.9l-34.07,13.947a3.1,3.1,0,0,1-1.149.238,2.247,2.247,0,0,1-1.663-.7,2.686,2.686,0,0,1-.634-2.046ZM79.259,95.968a53.376,53.376,0,0,1,32.527-23.652,3.026,3.026,0,0,1,3.741,2.773l2.713,36.727a2.611,2.611,0,0,1-.609,2.042,2.233,2.233,0,0,1-1.667.707,3.057,3.057,0,0,1-1.142-.238l-34.1-13.947a3.121,3.121,0,0,1-1.787-1.888A3.008,3.008,0,0,1,79.259,95.968Zm7.028,63.015a3,3,0,0,1-2.3-1.093,52.811,52.811,0,0,1-12.6-34.2c0-1.378.051-2.7.171-4.033a3.023,3.023,0,0,1,3.769-2.7l35.793,8.758a2.569,2.569,0,0,1,1.914,1.629,2.531,2.531,0,0,1-.6,2.408l-23.787,28.1A3.119,3.119,0,0,1,86.287,158.983Zm59.814,11.7a3.021,3.021,0,0,1-1.742,1.873,52.746,52.746,0,0,1-40.222,0,3.031,3.031,0,0,1-1.744-1.849,3.1,3.1,0,0,1,.341-2.588l19.4-31.321a2.409,2.409,0,0,1,4.238.011l19.375,31.31A3.047,3.047,0,0,1,146.1,170.685ZM164.49,157.89a2.979,2.979,0,0,1-2.289,1.093,3.08,3.08,0,0,1-2.359-1.14l-23.781-28.1a2.543,2.543,0,0,1-.6-2.408,2.574,2.574,0,0,1,1.909-1.626l35.772-8.76a3.026,3.026,0,0,1,3.8,2.717c.114,1.333.171,2.648.171,4.02A52.8,52.8,0,0,1,164.49,157.89Z" transform="translate(-61.746 -61.18)" fill="#fff"/>
        <path id="Path_32" data-name="Path 32" d="M92.636,90.548A3.227,3.227,0,1,0,89.4,87.332,3.222,3.222,0,0,0,92.636,90.548Z" transform="translate(-30.144 -34.994)" fill="#cdced0"/>
        <path id="Path_33" data-name="Path 33" d="M95.993,87.419a3.225,3.225,0,1,0,1.986,6.137,3.225,3.225,0,1,0-1.986-6.137Z" transform="translate(-25.166 -31.381)" fill="#cdced0"/>
        <path id="Path_34" data-name="Path 34" d="M92.713,97.5a3.229,3.229,0,1,0,.711-4.5A3.2,3.2,0,0,0,92.713,97.5Z" transform="translate(-27.058 -25.539)" fill="#cdced0"/>
        <path id="Path_35" data-name="Path 35" d="M91.356,91.486a3.228,3.228,0,1,0-4.076,2.066A3.229,3.229,0,0,0,91.356,91.486Z" transform="translate(-35.11 -31.377)" fill="#cdced0"/>
        <g id="Group_8" data-name="Group 8" transform="translate(9.64 11.048)">
          <path id="Path_36" data-name="Path 36" d="M96.01,108.672a3.1,3.1,0,0,0,1.149-.238l34.07-13.947a3.094,3.094,0,0,0,1.809-1.9,3.016,3.016,0,0,0-.343-2.522A53.348,53.348,0,0,0,100.182,66.42a3.051,3.051,0,0,0-3.735,2.773l-2.734,36.734a2.686,2.686,0,0,0,.634,2.046A2.247,2.247,0,0,0,96.01,108.672Zm2.282-35.8A46.114,46.114,0,0,1,127.084,93.9L96.361,106.473a.973.973,0,0,1-.351.084l-.109-.026a.645.645,0,0,1-.077-.45Z" transform="translate(-34.866 -66.335)" fill="#cdced0"/>
          <path id="Path_37" data-name="Path 37" d="M71.633,94.488l34.1,13.947a3.057,3.057,0,0,0,1.142.238,2.233,2.233,0,0,0,1.667-.707,2.611,2.611,0,0,0,.609-2.042L106.436,69.2a3.026,3.026,0,0,0-3.741-2.773A53.376,53.376,0,0,0,70.168,90.076a3.008,3.008,0,0,0-.321,2.524A3.121,3.121,0,0,0,71.633,94.488Zm32.958-21.618,2.456,33.228a.654.654,0,0,1-.066.439c-.039.043-.193.051-.45-.058L75.795,93.9A46.121,46.121,0,0,1,104.591,72.869Z" transform="translate(-62.295 -66.336)" fill="#cdced0"/>
          <path id="Path_38" data-name="Path 38" d="M107.892,97.641a2.568,2.568,0,0,0-1.913-1.629L70.186,87.255a3.023,3.023,0,0,0-3.769,2.7c-.12,1.335-.171,2.655-.171,4.033a52.811,52.811,0,0,0,12.6,34.2,3,3,0,0,0,2.3,1.093,3.119,3.119,0,0,0,2.361-1.134l23.787-28.1A2.531,2.531,0,0,0,107.892,97.641Zm-2.211,1.041L84.366,123.865A45.755,45.755,0,0,1,73.115,93.81c0-1.217.06-2.428.156-3.623l32.2,7.883c.306.077.4.191.411.219A.63.63,0,0,1,105.681,98.683Z" transform="translate(-66.245 -42.531)" fill="#cdced0"/>
          <path id="Path_39" data-name="Path 39" d="M137.683,89.974a3.026,3.026,0,0,0-3.8-2.717l-35.772,8.76A2.574,2.574,0,0,0,96.2,97.643a2.543,2.543,0,0,0,.6,2.408l23.781,28.1a3.08,3.08,0,0,0,2.359,1.14,2.979,2.979,0,0,0,2.288-1.093,52.8,52.8,0,0,0,12.625-34.2C137.855,92.622,137.8,91.307,137.683,89.974Zm-17.952,33.892L98.415,98.686c-.169-.206-.21-.36-.191-.4s.1-.141.4-.219l32.208-7.885c.094,1.2.154,2.408.154,3.626A45.766,45.766,0,0,1,119.731,123.866Z" transform="translate(-32.126 -42.533)" fill="#cdced0"/>
          <path id="Path_40" data-name="Path 40" d="M104.771,97.153a2.409,2.409,0,0,0-4.238-.011l-19.4,31.321a3.1,3.1,0,0,0-.341,2.588,3.031,3.031,0,0,0,1.744,1.849,52.746,52.746,0,0,0,40.222,0,3,3,0,0,0,1.389-4.436Zm-2.121,32.688a45.7,45.7,0,0,1-17.674-3.559l17.357-28.03c.163-.264.3-.319.317-.319s.154.056.313.326l17.346,28.03A45.708,45.708,0,0,1,102.65,129.841Z" transform="translate(-49.785 -32.57)" fill="#cdced0"/>
        </g>
        <path id="Path_41" data-name="Path 41" d="M87.348,93.693a3.222,3.222,0,1,0,4.5-.707A3.22,3.22,0,0,0,87.348,93.693Z" transform="translate(-33.205 -25.531)" fill="#cdced0"/>
      </g>
    </g>
  </g>
</svg>
