<?xml version="1.0" encoding="utf-8"?>
<!-- Generator: Adobe Illustrator 16.0.0, SVG Export Plug-In . SVG Version: 6.00 Build 0)  -->
<!DOCTYPE svg PUBLIC "-//W3C//DTD SVG 1.1//EN" "http://www.w3.org/Graphics/SVG/1.1/DTD/svg11.dtd">
<svg version="1.1" id="Layer_1" xmlns="http://www.w3.org/2000/svg" xmlns:xlink="http://www.w3.org/1999/xlink" x="0px" y="0px"
	 width="400px" height="104.67px" viewBox="0 0 400 104.67" style="enable-background:new 0 0 400 104.67;" xml:space="preserve">
<g>
	<path style="fill:#00377B;" d="M254.14,75.64c-13.49,0-20.33-6.52-20.33-19.37V34.09c0-3.65,2.97-6.61,6.62-6.61
		c3.65,0,6.62,2.97,6.62,6.61v22.19c0,4.97,2.12,7.09,7.09,7.09c4.91,0,7-2.12,7-7.09V34.09c0-3.65,2.97-6.61,6.62-6.61
		s6.62,2.97,6.62,6.61v22.19C274.37,69.13,267.57,75.64,254.14,75.64"/>
	<path style="fill:#00377B;" d="M290.92,75.17c-8.49,0-13.57-5.11-13.57-13.66V10.28c0-3.65,2.97-6.61,6.62-6.61
		c3.65,0,6.61,2.97,6.61,6.61v52.18c0,0.11,0.26,0.23,0.35,0.24h0c3.48,0,6.22,2.74,6.22,6.23
		C297.15,72.43,294.41,75.17,290.92,75.17"/>
	<path style="fill:#00377B;" d="M313.63,75.64c-13.49,0-20.33-6.52-20.33-19.37V34.09c0-3.65,2.97-6.61,6.61-6.61
		c3.65,0,6.62,2.97,6.62,6.61v22.19c0,4.97,2.12,7.09,7.1,7.09c4.91,0,7-2.12,7-7.09V34.09c0-3.65,2.97-6.61,6.61-6.61
		c3.65,0,6.62,2.97,6.62,6.61v22.19C333.85,69.13,327.05,75.64,313.63,75.64"/>
	<path style="fill:#00377B;" d="M359.71,63.17h-8.86c-1.55,0-4.14-0.23-4.14-1.76c0-0.07,0.01-0.14,0.02-0.22
		c2.49,0.79,5.39,1.21,8.31,1.21c12.42,0,20.13-6.8,20.13-17.75c0-3.43-0.72-6.43-2.15-8.96c0.21-0.03,0.43-0.04,0.68-0.04
		c3.18,0,5.76-2.58,5.76-5.76c0-3.17-2.58-5.76-5.76-5.76c-5.07,0-8.25,2.3-9.96,4.11c-2.58-0.9-5.5-1.35-8.7-1.35
		c-12.42,0-20.14,6.8-20.14,17.75c0,3.86,0.82,6.97,2.58,9.7c-1.79,1.88-2.77,4.21-2.77,6.68c0,3.02,1.18,5.61,3.44,7.6
		c-3.82,3.1-4.68,6.72-4.68,9.35c0,10.04,8.06,15.56,22.71,15.56c14.01,0,22.71-6.07,22.71-15.85
		C378.89,68.33,372.08,63.17,359.71,63.17 M355.05,37.04c5.33,0,8.38,3.33,8.38,7.62c0,4.28-3.05,7.62-8.38,7.62
		s-8.38-3.33-8.38-7.62C346.67,40.37,349.71,37.04,355.05,37.04 M356.28,81.84c-6.35,0-9.57-1.3-9.57-3.86
		c0-1.27,1.3-2.83,4.21-3.48h8.79c2.88,0,5.95,0.84,5.95,3.19C365.67,80.56,360.95,81.84,356.28,81.84"/>
	<path style="fill:#00377B;" d="M163.81,51.07c2.52-2.9,6.39-4.94,10.88-5.76l10.82-1.98l-0.04-0.24c-0.31-1.68-1.13-2.92-2.44-3.67
		c-1.41-0.81-3.37-1.03-5.65-0.61c-3.65,0.67-5.91,2.76-7.92,4.84l-0.01,0.01c-1.06,1.07-2.05,1.61-3.42,1.86
		c-3.23,0.59-6.33-1.56-6.92-4.78c-0.27-1.48,0.03-3.02,0.85-4.35c1.52-2.45,4.19-5.41,8.77-7.49c-1.13-0.9-2.55-1.43-4.1-1.43
		c-3.34,0-5.36,2.16-6.13,4.17l-9.1,23.01l-9.1-22.99c-0.78-2.02-2.8-4.18-6.14-4.18c-3.65,0-6.62,2.97-6.62,6.61
		c0,0.89,0.16,1.74,0.51,2.6l15.23,34.47l0,0.01c1.13,2.51,3.41,4.01,6.1,4.01c2.69,0,4.97-1.5,6.11-4.02l4.98-11.26
		C160.5,56.57,161.63,53.56,163.81,51.07"/>
	<path style="fill:#00377B;" d="M180.86,63.73c4.03-0.74,7.67-3.88,6.83-8.46l-0.21-1.17l-9.51,1.74c-1.66,0.3-2.91,0.91-3.6,1.75
		c-0.63,0.77-0.84,1.79-0.61,3.03C173.95,61.68,174.53,64.89,180.86,63.73"/>
</g>
<g>
	<defs>
		<rect id="SVGID_1_" x="5.47" y="2.29" width="388.95" height="100.02"/>
	</defs>
	<clipPath id="SVGID_2_">
		<use xlink:href="#SVGID_1_"  style="overflow:visible;"/>
	</clipPath>
	<path style="clip-path:url(#SVGID_2_);fill:#00377B;" d="M225.58,59.18c-1.42,0-2.54,0.37-3.73,1.24l-0.15,0.11
		c-2.05,1.52-4.6,3.41-8.4,3.41c-7.28,0-8.81-6.91-8.81-12.71c0-5.76,1.53-12.62,8.81-12.62c3.88,0,5.99,1.73,7.38,3.23
		c1.24,1.38,2.84,2.11,4.62,2.11c3.39,0,6.04-2.65,6.04-6.04c0-1.43-0.37-2.5-1.36-3.86c-0.93-1.19-6.12-7.13-16.68-7.13
		c-7.68,0-13.5,2.51-17.24,7.26c1.06,1.8,1.83,3.87,2.26,6.2l4.38,23.98c0.31,1.7-0.07,3.43-1.06,4.87
		c-0.66,0.95-1.53,1.69-2.54,2.18c3.6,2.8,8.37,4.26,14.21,4.26c9.15,0,14.73-4.45,16.23-5.81c1.41-1.29,2.1-2.8,2.1-4.61
		C231.63,61.83,228.97,59.18,225.58,59.18"/>
	<path style="clip-path:url(#SVGID_2_);fill:#FFDD00;" d="M96.88,53.95c-3.31,0-6.46-1.94-7.84-5.18
		C80.8,29.4,61.17,17.64,40.18,19.51c-7.8,0.69-15.08,3.16-21.63,7.33c-3.97,2.52-9.23,1.35-11.75-2.62
		c-2.52-3.97-1.35-9.23,2.62-11.75c8.75-5.56,18.86-8.99,29.25-9.91c28.39-2.52,54.9,13.36,66.04,39.55
		c1.84,4.33-0.17,9.33-4.5,11.16C99.12,53.73,97.98,53.95,96.88,53.95"/>
	<path style="clip-path:url(#SVGID_2_);fill:#FFDD00;" d="M92.91,67.42c-0.42-4.71,3.06-8.87,7.77-9.29
		c4.71-0.42,8.87,3.06,9.29,7.77c0.42,4.71-3.06,8.87-7.77,9.29C97.49,75.61,93.33,72.13,92.91,67.42"/>
	<path style="clip-path:url(#SVGID_2_);fill:#FFDD00;" d="M78.92,64.66c-1.7-19.02-18.5-33.07-37.52-31.37
		c-19.02,1.7-33.07,18.49-31.37,37.52c1.7,19.02,18.49,33.07,37.52,31.37C66.58,100.48,80.62,83.68,78.92,64.66 M46.05,85.31
		c-9.71,0.87-18.28-6.3-19.15-16.01c-0.87-9.71,6.3-18.28,16.01-19.15c9.71-0.87,18.28,6.3,19.15,16.01
		C62.93,75.87,55.76,84.45,46.05,85.31"/>
</g>
<g>
	<path style="fill:#FFDD00;" d="M381.64,69.11c0-3.53,2.86-6.39,6.39-6.39s6.39,2.86,6.39,6.39s-2.86,6.39-6.39,6.39
		S381.64,72.64,381.64,69.11"/>
</g>
<g>
	<path style="fill:#00377B;" d="M89.74,88.7h-4.02v3.73h4.48v1.12h-5.81V83.21h5.58v1.12h-4.25v3.27h4.02V88.7z"/>
	<path style="fill:#00377B;" d="M98.1,91.52c0,0.77,0.02,1.44,0.06,2.02h-1.2l-0.08-1.21h-0.03c-0.35,0.6-1.13,1.38-2.45,1.38
		c-1.17,0-2.56-0.64-2.56-3.25v-4.34h1.35v4.11c0,1.41,0.43,2.36,1.66,2.36c0.9,0,1.53-0.63,1.78-1.23c0.08-0.2,0.12-0.44,0.12-0.69
		v-4.55h1.35V91.52z"/>
	<path style="fill:#00377B;" d="M100.34,88.44c0-0.87-0.02-1.63-0.06-2.32h1.18l0.05,1.46h0.06c0.34-1,1.15-1.63,2.06-1.63
		c0.15,0,0.26,0.02,0.38,0.05v1.27c-0.14-0.03-0.28-0.05-0.46-0.05c-0.95,0-1.63,0.72-1.81,1.73c-0.03,0.18-0.06,0.4-0.06,0.63v3.96
		h-1.33V88.44z"/>
	<path style="fill:#00377B;" d="M112.07,89.77c0,2.75-1.9,3.94-3.7,3.94c-2.01,0-3.56-1.47-3.56-3.82c0-2.48,1.63-3.94,3.68-3.94
		C110.63,85.95,112.07,87.5,112.07,89.77z M106.18,89.85c0,1.63,0.94,2.85,2.25,2.85c1.29,0,2.25-1.21,2.25-2.88
		c0-1.26-0.63-2.85-2.22-2.85S106.18,88.44,106.18,89.85z"/>
	<path style="fill:#00377B;" d="M113.77,88.55c0-0.95-0.03-1.72-0.06-2.42h1.21l0.06,1.27h0.03c0.55-0.9,1.43-1.44,2.64-1.44
		c1.79,0,3.14,1.52,3.14,3.77c0,2.67-1.63,3.99-3.37,3.99c-0.98,0-1.84-0.43-2.28-1.17h-0.03v4.03h-1.33V88.55z M115.11,90.52
		c0,0.2,0.03,0.38,0.06,0.55c0.25,0.94,1.06,1.58,2.02,1.58c1.43,0,2.25-1.17,2.25-2.87c0-1.49-0.78-2.76-2.21-2.76
		c-0.92,0-1.78,0.66-2.04,1.67c-0.05,0.17-0.09,0.37-0.09,0.55V90.52z"/>
	<path style="fill:#00377B;" d="M123.25,90.08c0.03,1.83,1.2,2.58,2.55,2.58c0.97,0,1.55-0.17,2.05-0.38l0.23,0.97
		c-0.48,0.21-1.29,0.46-2.47,0.46c-2.28,0-3.65-1.5-3.65-3.74c0-2.24,1.32-4,3.48-4c2.42,0,3.07,2.13,3.07,3.5
		c0,0.28-0.03,0.49-0.05,0.63H123.25z M127.21,89.11c0.02-0.86-0.35-2.19-1.87-2.19c-1.36,0-1.96,1.26-2.07,2.19H127.21z"/>
	<path style="fill:#00377B;" d="M131.89,83.04c-0.35,1.29-1.01,2.93-1.44,3.63l-0.86,0.11c0.34-0.91,0.74-2.5,0.9-3.6L131.89,83.04z
		"/>
</g>
<path style="fill:#00377B;" d="M130.78,88.39c0,1.13,3.77,0.61,3.77,3.15c0,1.44-1.23,2.18-2.81,2.18c-1.32,0-2.33-0.6-2.72-1.07
	c-0.12-0.15-0.18-0.29-0.18-0.48c0-0.4,0.34-0.74,0.74-0.74c0.15,0,0.31,0.05,0.48,0.18c0.41,0.34,0.92,0.63,1.69,0.63
	c0.69,0,1.14-0.18,1.14-0.61c0-1.24-3.76-0.6-3.76-3.21c0-1.38,1.15-2.06,2.56-2.06c1.09,0,2.06,0.41,2.49,0.95
	c0.09,0.12,0.15,0.23,0.15,0.46c0,0.4-0.34,0.74-0.74,0.74c-0.21,0-0.35-0.09-0.52-0.22c-0.34-0.25-0.75-0.49-1.38-0.49
	C131.12,87.81,130.78,88,130.78,88.39z M144.77,91.89c0.51,0,0.86,0.37,0.86,0.83c0,0.48-0.35,0.83-0.86,0.83h-4.54
	c-0.51,0-0.88-0.37-0.88-0.86v-8.7c0-0.49,0.4-0.89,0.89-0.89c0.49,0,0.89,0.4,0.89,0.89v7.9H144.77z M147.95,88.42
	c-0.15,0.11-0.28,0.15-0.46,0.15c-0.4,0-0.72-0.32-0.72-0.72c0-0.17,0.06-0.35,0.2-0.51c0.43-0.47,1.2-0.98,2.52-0.98
	c1.9,0,3.04,0.94,3.04,2.56v3.93c0,0.44-0.37,0.81-0.81,0.81c-0.44,0-0.81-0.37-0.81-0.81c-0.41,0.66-1.09,0.89-2.01,0.89
	c-1.5,0-2.5-0.94-2.5-2.32c0-1.43,1.15-2.16,2.49-2.16h2.01v-0.28c0-0.69-0.51-1.15-1.4-1.15
	C148.81,87.84,148.33,88.14,147.95,88.42z M150.88,90.98v-0.43h-1.79c-0.68,0-1.04,0.32-1.04,0.87c0,0.58,0.41,0.94,1.27,0.94
	C150.13,92.36,150.88,91.84,150.88,90.98z M155.63,87.36c0.29-0.6,1.01-0.98,1.66-0.98c0.43,0,0.78,0.35,0.78,0.78
	s-0.35,0.78-0.78,0.78c-1.06,0-1.66,0.67-1.66,1.7v3.19c0,0.46-0.37,0.83-0.83,0.83c-0.46,0-0.83-0.37-0.83-0.83v-5.55
	c0-0.46,0.37-0.83,0.83-0.83c0.46,0,0.83,0.37,0.83,0.83V87.36z M158.64,90.04c0-2.5,1.21-3.68,3.28-3.68
	c1.86,0,3.18,1.03,3.18,3.07v3.88c0,2.12-1.04,3.31-3.31,3.31c-1.24,0-2.16-0.38-2.68-1.01c-0.08-0.09-0.15-0.25-0.15-0.45
	c0-0.4,0.34-0.74,0.74-0.74c0.18,0,0.31,0.06,0.49,0.18c0.38,0.28,0.89,0.6,1.61,0.6c1.09,0,1.64-0.57,1.64-1.5v-0.58
	c-0.31,0.31-0.94,0.61-1.67,0.61C159.82,93.74,158.64,92.55,158.64,90.04z M163.44,89.43c0-1.06-0.63-1.66-1.52-1.66
	c-1.06,0-1.64,0.77-1.64,2.27c0,1.52,0.6,2.29,1.64,2.29c0.92,0,1.52-0.78,1.52-0.78V89.43z M169.53,86.36c2.59,0,3.07,2,3.07,3.05
	c0,0.57,0,1.23-0.94,1.23h-3.79c0,1.1,0.78,1.61,1.79,1.61c0.67,0,1.15-0.23,1.52-0.48c0.17-0.11,0.29-0.17,0.49-0.17
	c0.4,0,0.72,0.32,0.72,0.72c0,0.25-0.12,0.45-0.26,0.57c-0.26,0.25-1.07,0.84-2.47,0.84c-2.13,0-3.45-1.15-3.45-3.71
	C166.22,87.68,167.44,86.36,169.53,86.36z M167.92,89.26h3.04c0-0.75-0.43-1.49-1.43-1.49C168.64,87.77,168,88.28,167.92,89.26z
	 M175.31,88.39c0,1.13,3.77,0.61,3.77,3.15c0,1.44-1.23,2.18-2.81,2.18c-1.32,0-2.33-0.6-2.71-1.07c-0.12-0.15-0.18-0.29-0.18-0.48
	c0-0.4,0.34-0.74,0.74-0.74c0.15,0,0.31,0.05,0.48,0.18c0.41,0.34,0.92,0.63,1.69,0.63c0.69,0,1.14-0.18,1.14-0.61
	c0-1.24-3.76-0.6-3.76-3.21c0-1.38,1.15-2.06,2.56-2.06c1.09,0,2.06,0.41,2.49,0.95c0.09,0.12,0.15,0.23,0.15,0.46
	c0,0.4-0.34,0.74-0.74,0.74c-0.21,0-0.35-0.09-0.52-0.22c-0.34-0.25-0.75-0.49-1.38-0.49C175.65,87.81,175.31,88,175.31,88.39z
	 M180.8,85.29c0-0.45,0.37-0.81,0.81-0.81s0.81,0.37,0.81,0.81v1.29h0.69c0.38,0,0.69,0.31,0.69,0.69c0,0.38-0.31,0.69-0.69,0.69
	h-0.69v3.71c0,0.35,0.31,0.55,0.58,0.55c0.4,0,0.72,0.32,0.72,0.72c0,0.4-0.32,0.72-0.72,0.72c-1.37,0-2.21-0.88-2.21-2.09v-3.62
	h-0.35c-0.38,0-0.69-0.31-0.69-0.69c0-0.38,0.31-0.69,0.69-0.69h0.35V85.29z M190.36,92.78c0,0.49-0.4,0.89-0.89,0.89
	c-0.49,0-0.89-0.4-0.89-0.89v-8.79c0-0.49,0.4-0.89,0.89-0.89c0.49,0,0.89,0.4,0.89,0.89V92.78z M198.24,89.03v3.83
	c0,0.46-0.37,0.8-0.83,0.8c-0.49,0-0.83-0.34-0.83-0.8v-3.53c0-0.87-0.35-1.47-1.35-1.47c-1.15,0-1.53,0.67-1.53,1.58v3.42
	c0,0.46-0.35,0.8-0.83,0.8s-0.83-0.34-0.83-0.8v-5.58c0-0.46,0.37-0.83,0.83-0.83c0.46,0,0.83,0.37,0.83,0.83
	c0.29-0.45,0.94-0.92,1.96-0.92C197.75,86.36,198.24,87.7,198.24,89.03z M204.18,86.98v-3.53c0-0.46,0.37-0.83,0.83-0.83
	c0.46,0,0.83,0.37,0.83,0.83v7.23c0,2.04-1.32,3.07-3.18,3.07c-2.07,0-3.28-1.18-3.28-3.68c0-2.5,1.18-3.7,3.11-3.7
	C203.23,86.36,203.87,86.67,204.18,86.98z M204.18,88.56c0,0-0.6-0.78-1.52-0.78c-1.04,0-1.64,0.77-1.64,2.29
	c0,1.5,0.58,2.27,1.64,2.27c0.89,0,1.52-0.6,1.52-1.66V88.56z M210.3,86.36c2.59,0,3.07,2,3.07,3.05c0,0.57,0,1.23-0.94,1.23h-3.79
	c0,1.1,0.78,1.61,1.79,1.61c0.67,0,1.15-0.23,1.52-0.48c0.17-0.11,0.29-0.17,0.49-0.17c0.4,0,0.72,0.32,0.72,0.72
	c0,0.25-0.12,0.45-0.26,0.57c-0.26,0.25-1.07,0.84-2.47,0.84c-2.13,0-3.45-1.15-3.45-3.71C206.99,87.68,208.21,86.36,210.3,86.36z
	 M208.69,89.26h3.04c0-0.75-0.43-1.49-1.43-1.49C209.41,87.77,208.77,88.28,208.69,89.26z M218.06,86.36c2.01,0,3.11,1.18,3.11,3.68
	c0,2.5-1.12,3.7-3.11,3.7c-0.77,0-1.44-0.25-1.81-0.66v2.72c0,0.46-0.37,0.83-0.83,0.83c-0.46,0-0.83-0.37-0.83-0.83v-8.51
	c0-0.46,0.37-0.83,0.83-0.83c0.46,0,0.83,0.37,0.83,0.83C216.48,86.9,217.2,86.36,218.06,86.36z M217.85,87.77
	c-1.07,0-1.64,0.77-1.64,2.29c0,1.5,0.57,2.27,1.64,2.27s1.64-0.77,1.64-2.27C219.49,88.54,218.92,87.77,217.85,87.77z
	 M225.41,86.36c2.59,0,3.07,2,3.07,3.05c0,0.57,0,1.23-0.94,1.23h-3.79c0,1.1,0.78,1.61,1.79,1.61c0.67,0,1.15-0.23,1.52-0.48
	c0.17-0.11,0.29-0.17,0.49-0.17c0.4,0,0.72,0.32,0.72,0.72c0,0.25-0.12,0.45-0.26,0.57c-0.26,0.25-1.07,0.84-2.47,0.84
	c-2.13,0-3.45-1.15-3.45-3.71C222.09,87.68,223.32,86.36,225.41,86.36z M223.8,89.26h3.04c0-0.75-0.43-1.49-1.43-1.49
	C224.52,87.77,223.88,88.28,223.8,89.26z M235.82,89.03v3.83c0,0.46-0.37,0.8-0.83,0.8c-0.49,0-0.83-0.34-0.83-0.8v-3.53
	c0-0.87-0.35-1.47-1.35-1.47c-1.15,0-1.53,0.67-1.53,1.58v3.42c0,0.46-0.35,0.8-0.83,0.8s-0.83-0.34-0.83-0.8v-5.58
	c0-0.46,0.37-0.83,0.83-0.83c0.46,0,0.83,0.37,0.83,0.83c0.29-0.45,0.94-0.92,1.96-0.92C235.33,86.36,235.82,87.7,235.82,89.03z
	 M241.76,86.98v-3.53c0-0.46,0.37-0.83,0.83-0.83c0.46,0,0.83,0.37,0.83,0.83v7.23c0,2.04-1.32,3.07-3.18,3.07
	c-2.07,0-3.28-1.18-3.28-3.68c0-2.5,1.18-3.7,3.11-3.7C240.81,86.36,241.45,86.67,241.76,86.98z M241.76,88.56
	c0,0-0.6-0.78-1.52-0.78c-1.04,0-1.64,0.77-1.64,2.29c0,1.5,0.58,2.27,1.64,2.27c0.89,0,1.52-0.6,1.52-1.66V88.56z M247.88,86.36
	c2.59,0,3.07,2,3.07,3.05c0,0.57,0,1.23-0.94,1.23h-3.79c0,1.1,0.78,1.61,1.79,1.61c0.68,0,1.15-0.23,1.52-0.48
	c0.17-0.11,0.29-0.17,0.49-0.17c0.4,0,0.72,0.32,0.72,0.72c0,0.25-0.12,0.45-0.26,0.57c-0.26,0.25-1.07,0.84-2.47,0.84
	c-2.13,0-3.45-1.15-3.45-3.71C244.57,87.68,245.79,86.36,247.88,86.36z M246.27,89.26h3.04c0-0.75-0.43-1.49-1.43-1.49
	C246.99,87.77,246.35,88.28,246.27,89.26z M258.29,89.03v3.83c0,0.46-0.37,0.8-0.83,0.8c-0.49,0-0.83-0.34-0.83-0.8v-3.53
	c0-0.87-0.35-1.47-1.35-1.47c-1.15,0-1.53,0.67-1.53,1.58v3.42c0,0.46-0.35,0.8-0.83,0.8s-0.83-0.34-0.83-0.8v-5.58
	c0-0.46,0.37-0.83,0.83-0.83s0.83,0.37,0.83,0.83c0.29-0.45,0.94-0.92,1.96-0.92C257.8,86.36,258.29,87.7,258.29,89.03z
	 M260.29,85.29c0-0.45,0.37-0.81,0.81-0.81c0.45,0,0.81,0.37,0.81,0.81v1.29h0.69c0.38,0,0.69,0.31,0.69,0.69
	c0,0.38-0.31,0.69-0.69,0.69h-0.69v3.71c0,0.35,0.31,0.55,0.58,0.55c0.4,0,0.72,0.32,0.72,0.72c0,0.4-0.32,0.72-0.72,0.72
	c-1.36,0-2.21-0.88-2.21-2.09v-3.62h-0.35c-0.38,0-0.69-0.31-0.69-0.69c0-0.38,0.31-0.69,0.69-0.69h0.35V85.29z M269.84,89.58v3.19
	c0,0.49-0.4,0.89-0.89,0.89s-0.89-0.4-0.89-0.89v-8.67c0-0.49,0.4-0.89,0.89-0.89h2.93c2.07,0,3.24,1.47,3.24,3.21
	c0,1.46-0.89,2.87-2.36,3.05l2.27,2.76c0.14,0.18,0.18,0.37,0.18,0.54c0,0.49-0.4,0.89-0.89,0.89c-0.26,0-0.54-0.12-0.69-0.32
	l-2.79-3.76H269.84z M269.84,84.81v3.21h2.07c0.95,0,1.37-0.78,1.37-1.6c0-0.83-0.41-1.61-1.41-1.61H269.84z M279.51,86.36
	c2.59,0,3.07,2,3.07,3.05c0,0.57,0,1.23-0.94,1.23h-3.79c0,1.1,0.78,1.61,1.79,1.61c0.67,0,1.15-0.23,1.52-0.48
	c0.17-0.11,0.29-0.17,0.49-0.17c0.4,0,0.72,0.32,0.72,0.72c0,0.25-0.12,0.45-0.26,0.57c-0.26,0.25-1.07,0.84-2.47,0.84
	c-2.13,0-3.45-1.15-3.45-3.71C276.19,87.68,277.42,86.36,279.51,86.36z M277.9,89.26h3.04c0-0.75-0.43-1.49-1.43-1.49
	C278.62,87.77,277.97,88.28,277.9,89.26z M284.26,85.29c0-0.45,0.37-0.81,0.81-0.81c0.44,0,0.81,0.37,0.81,0.81v1.29h0.69
	c0.38,0,0.69,0.31,0.69,0.69c0,0.38-0.31,0.69-0.69,0.69h-0.69v3.71c0,0.35,0.31,0.55,0.58,0.55c0.4,0,0.72,0.32,0.72,0.72
	c0,0.4-0.32,0.72-0.72,0.72c-1.37,0-2.21-0.88-2.21-2.09v-3.62h-0.35c-0.38,0-0.69-0.31-0.69-0.69c0-0.38,0.31-0.69,0.69-0.69h0.35
	V85.29z M290.08,87.36c0.29-0.6,1.01-0.98,1.66-0.98c0.43,0,0.78,0.35,0.78,0.78s-0.35,0.78-0.78,0.78c-1.06,0-1.66,0.67-1.66,1.7
	v3.19c0,0.46-0.37,0.83-0.83,0.83s-0.83-0.37-0.83-0.83v-5.55c0-0.46,0.37-0.83,0.83-0.83s0.83,0.37,0.83,0.83V87.36z M296.4,86.36
	c2.59,0,3.07,2,3.07,3.05c0,0.57,0,1.23-0.94,1.23h-3.79c0,1.1,0.78,1.61,1.79,1.61c0.68,0,1.15-0.23,1.52-0.48
	c0.17-0.11,0.29-0.17,0.49-0.17c0.4,0,0.72,0.32,0.72,0.72c0,0.25-0.12,0.45-0.26,0.57c-0.26,0.25-1.07,0.84-2.47,0.84
	c-2.13,0-3.45-1.15-3.45-3.71C293.08,87.68,294.31,86.36,296.4,86.36z M294.79,89.26h3.04c0-0.75-0.43-1.49-1.43-1.49
	C295.51,87.77,294.86,88.28,294.79,89.26z M301.83,88.42c-0.15,0.11-0.28,0.15-0.46,0.15c-0.4,0-0.72-0.32-0.72-0.72
	c0-0.17,0.06-0.35,0.2-0.51c0.43-0.47,1.2-0.98,2.52-0.98c1.9,0,3.04,0.94,3.04,2.56v3.93c0,0.44-0.37,0.81-0.81,0.81
	c-0.45,0-0.81-0.37-0.81-0.81c-0.41,0.66-1.09,0.89-2.01,0.89c-1.5,0-2.5-0.94-2.5-2.32c0-1.43,1.15-2.16,2.48-2.16h2.01v-0.28
	c0-0.69-0.51-1.15-1.4-1.15C302.69,87.84,302.21,88.14,301.83,88.42z M304.76,90.98v-0.43h-1.79c-0.67,0-1.04,0.32-1.04,0.87
	c0,0.58,0.41,0.94,1.27,0.94C304,92.36,304.76,91.84,304.76,90.98z M312.33,86.98v-3.53c0-0.46,0.37-0.83,0.83-0.83
	s0.83,0.37,0.83,0.83v7.23c0,2.04-1.32,3.07-3.18,3.07c-2.07,0-3.28-1.18-3.28-3.68c0-2.5,1.18-3.7,3.11-3.7
	C311.38,86.36,312.03,86.67,312.33,86.98z M312.33,88.56c0,0-0.6-0.78-1.52-0.78c-1.04,0-1.64,0.77-1.64,2.29
	c0,1.5,0.58,2.27,1.64,2.27c0.89,0,1.52-0.6,1.52-1.66V88.56z M318.45,86.36c2.59,0,3.07,2,3.07,3.05c0,0.57,0,1.23-0.94,1.23h-3.79
	c0,1.1,0.78,1.61,1.79,1.61c0.67,0,1.15-0.23,1.52-0.48c0.17-0.11,0.29-0.17,0.49-0.17c0.4,0,0.72,0.32,0.72,0.72
	c0,0.25-0.12,0.45-0.26,0.57c-0.26,0.25-1.07,0.84-2.47,0.84c-2.13,0-3.45-1.15-3.45-3.71C315.14,87.68,316.37,86.36,318.45,86.36z
	 M316.84,89.26h3.04c0-0.75-0.43-1.49-1.43-1.49C317.56,87.77,316.92,88.28,316.84,89.26z M324.33,87.36
	c0.29-0.6,1.01-0.98,1.66-0.98c0.43,0,0.78,0.35,0.78,0.78s-0.35,0.78-0.78,0.78c-1.06,0-1.66,0.67-1.66,1.7v3.19
	c0,0.46-0.37,0.83-0.83,0.83c-0.46,0-0.83-0.37-0.83-0.83v-5.55c0-0.46,0.37-0.83,0.83-0.83c0.46,0,0.83,0.37,0.83,0.83V87.36z"/>
</svg>
