<svg xmlns="http://www.w3.org/2000/svg" width="48.089" height="49.943" viewBox="0 0 48.089 49.943">
  <g id="Group_13" data-name="Group 13" transform="translate(-132.868 284.917)">
    <path id="Path_43" data-name="Path 43" d="M153.987-284.917c1.007.161,2.032.249,3.017.5,6.883,1.727,11.734,5.859,14.217,12.52,2.329,6.253,1.45,12.225-2.129,17.821a16.37,16.37,0,0,1-1.139,1.521c-.39.476-.819.921-1.253,1.4.117.133.216.255.323.368l13.317,13.843c.057.059.114.117.17.176.677.721.585,1.3-.284,1.793h-.488c-.288-.257-.6-.5-.863-.774q-6.614-6.867-13.218-13.744a3.614,3.614,0,0,1-.3-.417c-.268.2-.448.328-.624.463a19.385,19.385,0,0,1-12.913,4.1,19.157,19.157,0,0,1-12.289-5.006,19.309,19.309,0,0,1-6.457-12.013,19.21,19.21,0,0,1,2.507-12.706,19.615,19.615,0,0,1,9.286-8.231,18.4,18.4,0,0,1,6.014-1.529,4.681,4.681,0,0,0,.473-.088Zm-19.223,19.791a17.9,17.9,0,0,0,17.884,17.913,17.875,17.875,0,0,0,17.922-17.869,17.867,17.867,0,0,0-17.9-17.937A17.89,17.89,0,0,0,134.764-265.126Z" transform="translate(0 0)" fill-rule="evenodd"/>
    <path id="Path_44" data-name="Path 44" d="M149.876-267.926v-2.6c0-.976-.007-1.951,0-2.925.007-.665.383-1.066.955-1.054a.93.93,0,0,1,.911,1.048c.008,1.642,0,3.283,0,4.924v.575c.207.009.38.025.552.026,1.561,0,3.121,0,4.682,0a3.184,3.184,0,0,1,.58.046.93.93,0,0,1,.789.912.931.931,0,0,1-.807.9,2.856,2.856,0,0,1-.532.041q-2.341.005-4.682,0h-.581v.57c0,1.625,0,3.252,0,4.876,0,.711-.352,1.127-.931,1.129s-.935-.415-.937-1.123c0-1.625,0-3.251,0-4.876v-.576h-.626c-1.625,0-3.251.008-4.876-.006a.98.98,0,0,1-1.1-.929c-.012-.561.424-.937,1.12-.964.114,0,.227,0,.342,0h5.141Z" transform="translate(1.859 1.861)" fill-rule="evenodd"/>
  </g>
</svg>
