<svg xmlns="http://www.w3.org/2000/svg" width="30.002" height="30.023" viewBox="0 0 30.002 30.023">
  <g id="Group_6" data-name="Group 6" transform="translate(763.617 479.261)">
    <path id="Path_24" data-name="Path 24" d="M-755.053-453.077c0-.885-.01-1.719,0-2.552a1.06,1.06,0,0,1,1.45-1,.993.993,0,0,1,.683.947q.02,2.73,0,5.46a1.033,1.033,0,0,1-1.041,1.018q-2.7.016-5.393,0a1.063,1.063,0,0,1-1.062-1.07,1.061,1.061,0,0,1,1.064-1.067c.957-.011,1.914,0,2.967,0-.328-.222-.584-.387-.832-.564a14.643,14.643,0,0,1-6.214-9.937,14.937,14.937,0,0,1,9.333-16.337,14.668,14.668,0,0,1,5.357-1.034,1.085,1.085,0,0,1,1.186,1.049,1.088,1.088,0,0,1-1.177,1.094,12.862,12.862,0,0,0-12.179,9.05,12.859,12.859,0,0,0,5.616,14.811C-755.233-453.175-755.174-453.144-755.053-453.077Z" transform="translate(0 -0.043)" fill-rule="evenodd"/>
    <path id="Path_25" data-name="Path 25" d="M-600.267-475.381c0,.884.01,1.717,0,2.549a1.062,1.062,0,0,1-1.448,1,1.007,1.007,0,0,1-.688-.978q-.011-2.7.005-5.392a1.047,1.047,0,0,1,1.074-1.057q2.679-.012,5.358,0a1.063,1.063,0,0,1,1.061,1.071,1.066,1.066,0,0,1-1.066,1.066c-.848.012-1.7,0-2.545,0h-.421c.252.168.424.279.593.4a14.709,14.709,0,0,1,6.5,10.341,14.972,14.972,0,0,1-10.869,16.6,14.879,14.879,0,0,1-3.833.537,1.09,1.09,0,0,1-1.217-1.05,1.084,1.084,0,0,1,1.176-1.093,12.845,12.845,0,0,0,12.309-9.5,12.868,12.868,0,0,0-5.654-14.31C-600.031-475.249-600.126-475.3-600.267-475.381Z" transform="translate(-141.923)" fill-rule="evenodd"/>
  </g>
</svg>
